<svg width="59" height="58" viewBox="0 0 59 58" fill="none" xmlns="http://www.w3.org/2000/svg">
    <path d="M23.8722 0.205078C26.9118 0.205078 29.827 1.41255 31.9763 3.56186C34.1257 5.71118 35.3332 8.62627 35.3332 11.6659V17.3963H40.3474C42.0572 17.3963 43.697 18.0755 44.906 19.2844C46.115 20.4934 46.7942 22.1332 46.7942 23.8429V25.9918C45.8802 25.9918 44.969 26.307 44.2269 26.9345L43.9203 27.221C43.4741 27.6864 42.9995 28.1237 42.4992 28.5304L42.4963 23.8429C42.4963 23.273 42.2699 22.7264 41.8669 22.3234C41.4639 21.9205 40.9173 21.694 40.3474 21.694H7.39701C6.82707 21.694 6.28048 21.9205 5.87748 22.3234C5.47448 22.7264 5.24807 23.273 5.24807 23.8429V51.0623C5.24807 52.2485 6.21079 53.2112 7.39701 53.2112H35.7286C36.9298 54.8968 38.4245 56.3526 40.1411 57.509H7.39701C5.68721 57.509 4.04743 56.8298 2.83842 55.6208C1.62941 54.4118 0.950195 52.7721 0.950195 51.0623V23.8429C0.950195 22.1332 1.62941 20.4934 2.83842 19.2844C4.04743 18.0755 5.68721 17.3963 7.39701 17.3963H12.4112V11.6659C12.4112 8.62627 13.6187 5.71118 15.768 3.56186C17.9174 1.41255 20.8326 0.205078 23.8722 0.205078ZM47.6079 29.2066C50.4503 32.1749 53.5992 33.6333 57.1091 33.6333C57.6621 33.6333 58.1263 34.043 58.2323 34.5846L58.2552 34.8252V41.9911C58.2552 49.6756 54.4931 54.9017 47.1581 57.4488C46.9234 57.5305 46.6679 57.5305 46.4332 57.4488C39.3388 54.9848 35.5882 50.0222 35.3447 42.7504L35.3332 41.994V34.831C35.3332 34.172 35.8489 33.6362 36.4793 33.6362C39.9835 33.6362 43.1353 32.1749 45.9862 29.2095C46.0904 29.099 46.2161 29.011 46.3555 28.9508C46.4949 28.8906 46.6452 28.8596 46.7971 28.8596C46.9489 28.8596 47.0992 28.8906 47.2386 28.9508C47.3781 29.011 47.5037 29.099 47.6079 29.2095V29.2066ZM23.8722 33.1548C25.0121 33.1548 26.1052 33.6076 26.9113 34.4136C27.7173 35.2196 28.1701 36.3128 28.1701 37.4526C28.1701 38.5925 27.7173 39.6856 26.9113 40.4916C26.1052 41.2976 25.0121 41.7504 23.8722 41.7504C22.7323 41.7504 21.6391 41.2976 20.8331 40.4916C20.0271 39.6856 19.5743 38.5925 19.5743 37.4526C19.5743 36.3128 20.0271 35.2196 20.8331 34.4136C21.6391 33.6076 22.7323 33.1548 23.8722 33.1548ZM23.8722 4.50287C21.9724 4.50287 20.1504 5.25754 18.8071 6.60086C17.4638 7.94419 16.7091 9.76612 16.7091 11.6659V17.3963H31.0353V11.6659C31.0353 9.76612 30.2806 7.94419 28.9373 6.60086C27.5939 5.25754 25.772 4.50287 23.8722 4.50287Z" fill="#7D9EBB"/>
</svg>
