<svg width="48" height="48" viewBox="0 0 48 48" fill="none" xmlns="http://www.w3.org/2000/svg">
    <path d="M0 8C0 3.58172 3.58172 0 8 0H40C44.4183 0 48 3.58172 48 8V40C48 44.4183 44.4183 48 40 48H8C3.58172 48 0 44.4183 0 40V8Z" fill="#E6EEF3"/>
    <path d="M31.3721 24.7401C31.3596 22.6089 32.3293 21.0027 34.2877 19.8184C33.1924 18.256 31.5353 17.3966 29.351 17.231C27.2828 17.0685 25.02 18.431 24.1914 18.431C23.3158 18.431 21.3135 17.2873 19.738 17.2873C16.4866 17.3373 13.0312 19.8684 13.0312 25.0182C13.0312 26.54 13.3106 28.1118 13.8692 29.7305C14.6161 31.8617 17.3089 37.0834 20.1178 36.999C21.5866 36.9646 22.6254 35.9615 24.5367 35.9615C26.3915 35.9615 27.3518 36.999 28.9901 36.999C31.8241 36.9584 34.2595 32.2117 34.9688 30.0743C31.1681 28.29 31.3721 24.8495 31.3721 24.7401ZM28.0737 15.2092C29.6648 13.328 29.5205 11.6156 29.4734 11C28.0674 11.0812 26.4417 11.9531 25.5159 13.0249C24.4959 14.1749 23.8964 15.5967 24.0251 17.1998C25.5441 17.3154 26.9313 16.5373 28.0737 15.2092Z" fill="black"/>
</svg>
