<svg width="24" height="24" viewBox="0 0 24 24" fill="none" xmlns="http://www.w3.org/2000/svg">
    <g clip-path="url(#clip0_3382_1457)">
        <path d="M-0.000549316 19C0.00103854 20.3256 0.528333 21.5964 1.46567 22.5338C2.40301 23.4711 3.67386 23.9984 4.99945 24H18.9995C20.325 23.9984 21.5959 23.4711 22.5332 22.5338C23.4706 21.5964 23.9979 20.3256 23.9995 19V10H-0.000549316V19ZM16.9995 14.5C17.2961 14.5 17.5861 14.588 17.8328 14.7528C18.0795 14.9176 18.2717 15.1519 18.3853 15.426C18.4988 15.7001 18.5285 16.0017 18.4706 16.2926C18.4128 16.5836 18.2699 16.8509 18.0601 17.0607C17.8503 17.2704 17.5831 17.4133 17.2921 17.4712C17.0011 17.5291 16.6995 17.4994 16.4254 17.3858C16.1513 17.2723 15.9171 17.08 15.7522 16.8334C15.5874 16.5867 15.4995 16.2967 15.4995 16C15.4995 15.6022 15.6575 15.2206 15.9388 14.9393C16.2201 14.658 16.6016 14.5 16.9995 14.5ZM11.9995 14.5C12.2961 14.5 12.5861 14.588 12.8328 14.7528C13.0795 14.9176 13.2717 15.1519 13.3853 15.426C13.4988 15.7001 13.5285 16.0017 13.4706 16.2926C13.4128 16.5836 13.2699 16.8509 13.0601 17.0607C12.8503 17.2704 12.5831 17.4133 12.2921 17.4712C12.0011 17.5291 11.6995 17.4994 11.4254 17.3858C11.1513 17.2723 10.9171 17.08 10.7522 16.8334C10.5874 16.5867 10.4995 16.2967 10.4995 16C10.4995 15.6022 10.6575 15.2206 10.9388 14.9393C11.2201 14.658 11.6016 14.5 11.9995 14.5ZM6.99945 14.5C7.29612 14.5 7.58613 14.588 7.83281 14.7528C8.07948 14.9176 8.27174 15.1519 8.38527 15.426C8.4988 15.7001 8.52851 16.0017 8.47063 16.2926C8.41275 16.5836 8.26989 16.8509 8.06011 17.0607C7.85033 17.2704 7.58306 17.4133 7.29209 17.4712C7.00111 17.5291 6.69951 17.4994 6.42543 17.3858C6.15134 17.2723 5.91707 17.08 5.75225 16.8334C5.58742 16.5867 5.49945 16.2967 5.49945 16C5.49945 15.6022 5.65749 15.2206 5.93879 14.9393C6.22009 14.658 6.60163 14.5 6.99945 14.5Z" fill="#D86D5B"/>
        <path d="M18.9995 2H17.9995V1C17.9995 0.734784 17.8942 0.48043 17.7066 0.292893C17.5191 0.105357 17.2647 0 16.9995 0C16.7343 0 16.4799 0.105357 16.2924 0.292893C16.1049 0.48043 15.9995 0.734784 15.9995 1V2H7.99951V1C7.99951 0.734784 7.89415 0.48043 7.70662 0.292893C7.51908 0.105357 7.26473 0 6.99951 0C6.7343 0 6.47994 0.105357 6.29241 0.292893C6.10487 0.48043 5.99951 0.734784 5.99951 1V2H4.99951C3.67392 2.00159 2.40307 2.52888 1.46573 3.46622C0.528394 4.40356 0.00109958 5.67441 -0.000488281 7L-0.000488281 8H23.9995V7C23.9979 5.67441 23.4706 4.40356 22.5333 3.46622C21.596 2.52888 20.3251 2.00159 18.9995 2Z" fill="#D86D5B"/>
    </g>
    <defs>
        <clipPath id="clip0_3382_1457">
            <rect width="24" height="24" fill="white"/>
        </clipPath>
    </defs>
</svg>
