<svg width="130" height="131" viewBox="0 0 130 131" fill="none" xmlns="http://www.w3.org/2000/svg">
    <circle opacity="0.1" cx="65" cy="65.5" r="65" fill="#D86D5B"/>
    <circle cx="65" cy="65.5" r="45" fill="#EDAA9F"/>
    <path d="M65 52.1666C57.6533 52.1666 51.6666 58.1533 51.6666 65.5C51.6666 72.8466 57.6533 78.8333 65 78.8333C72.3466 78.8333 78.3333 72.8466 78.3333 65.5C78.3333 58.1533 72.3466 52.1666 65 52.1666ZM71.3733 62.4333L63.8133 69.9933C63.6266 70.18 63.3733 70.2866 63.1066 70.2866C62.84 70.2866 62.5866 70.18 62.4 69.9933L58.6266 66.22C58.24 65.8333 58.24 65.1933 58.6266 64.8066C59.0133 64.42 59.6533 64.42 60.04 64.8066L63.1066 67.8733L69.96 61.02C70.3466 60.6333 70.9866 60.6333 71.3733 61.02C71.76 61.4066 71.76 62.0333 71.3733 62.4333Z" fill="white"/>
</svg>
