<svg width="12" height="12" viewBox="0 0 12 12" fill="none" xmlns="http://www.w3.org/2000/svg">
<path d="M0 6C0 4.4087 0.632141 2.88258 1.75736 1.75736C2.88258 0.632141 4.4087 0 6 0C7.5913 0 9.11742 0.632141 10.2426 1.75736C11.3679 2.88258 12 4.4087 12 6V11.0002C12 11.2327 12 11.349 11.9745 11.4443C11.9404 11.5714 11.8735 11.6873 11.7804 11.7804C11.6873 11.8735 11.5714 11.9404 11.4443 11.9745C11.349 12 11.2327 12 11.0002 12H6C4.4087 12 2.88258 11.3679 1.75736 10.2426C0.632141 9.11742 0 7.5913 0 6Z" fill="black"/>
<path d="M3.375 4.875H8.625H3.375ZM3.375 7.125H7.125H3.375Z" fill="black"/>
<path d="M3.375 4.875H8.625M3.375 7.125H7.125" stroke="#F1BD19" stroke-linecap="round" stroke-linejoin="round"/>
</svg>
