<svg width="19" height="16" viewBox="0 0 19 16" fill="none" xmlns="http://www.w3.org/2000/svg">
    <path d="M18.375 14.25H17.125V5.5C17.2908 5.5 17.4497 5.43415 17.5669 5.31694C17.6842 5.19973 17.75 5.04076 17.75 4.875C17.75 4.70924 17.6842 4.55027 17.5669 4.43306C17.4497 4.31585 17.2908 4.25 17.125 4.25H13.375V1.75C13.5408 1.75 13.6997 1.68415 13.8169 1.56694C13.9342 1.44973 14 1.29076 14 1.125C14 0.95924 13.9342 0.800269 13.8169 0.683058C13.6997 0.565848 13.5408 0.5 13.375 0.5H2.125C1.95924 0.5 1.80027 0.565848 1.68306 0.683058C1.56585 0.800269 1.5 0.95924 1.5 1.125C1.5 1.29076 1.56585 1.44973 1.68306 1.56694C1.80027 1.68415 1.95924 1.75 2.125 1.75V14.25H0.875C0.70924 14.25 0.550268 14.3158 0.433058 14.4331C0.315848 14.5503 0.25 14.7092 0.25 14.875C0.25 15.0408 0.315848 15.1997 0.433058 15.3169C0.550268 15.4342 0.70924 15.5 0.875 15.5H18.375C18.5408 15.5 18.6997 15.4342 18.8169 15.3169C18.9342 15.1997 19 15.0408 19 14.875C19 14.7092 18.9342 14.5503 18.8169 14.4331C18.6997 14.3158 18.5408 14.25 18.375 14.25ZM5.25 3.625H6.5C6.66576 3.625 6.82473 3.69085 6.94194 3.80806C7.05915 3.92527 7.125 4.08424 7.125 4.25C7.125 4.41576 7.05915 4.57473 6.94194 4.69194C6.82473 4.80915 6.66576 4.875 6.5 4.875H5.25C5.08424 4.875 4.92527 4.80915 4.80806 4.69194C4.69085 4.57473 4.625 4.41576 4.625 4.25C4.625 4.08424 4.69085 3.92527 4.80806 3.80806C4.92527 3.69085 5.08424 3.625 5.25 3.625ZM4.625 7.375C4.625 7.20924 4.69085 7.05027 4.80806 6.93306C4.92527 6.81585 5.08424 6.75 5.25 6.75H6.5C6.66576 6.75 6.82473 6.81585 6.94194 6.93306C7.05915 7.05027 7.125 7.20924 7.125 7.375C7.125 7.54076 7.05915 7.69973 6.94194 7.81694C6.82473 7.93415 6.66576 8 6.5 8H5.25C5.08424 8 4.92527 7.93415 4.80806 7.81694C4.69085 7.69973 4.625 7.54076 4.625 7.375ZM9.625 14.25H5.875V10.5H9.625V14.25ZM10.25 8H9C8.83424 8 8.67527 7.93415 8.55806 7.81694C8.44085 7.69973 8.375 7.54076 8.375 7.375C8.375 7.20924 8.44085 7.05027 8.55806 6.93306C8.67527 6.81585 8.83424 6.75 9 6.75H10.25C10.4158 6.75 10.5747 6.81585 10.6919 6.93306C10.8092 7.05027 10.875 7.20924 10.875 7.375C10.875 7.54076 10.8092 7.69973 10.6919 7.81694C10.5747 7.93415 10.4158 8 10.25 8ZM10.25 4.875H9C8.83424 4.875 8.67527 4.80915 8.55806 4.69194C8.44085 4.57473 8.375 4.41576 8.375 4.25C8.375 4.08424 8.44085 3.92527 8.55806 3.80806C8.67527 3.69085 8.83424 3.625 9 3.625H10.25C10.4158 3.625 10.5747 3.69085 10.6919 3.80806C10.8092 3.92527 10.875 4.08424 10.875 4.25C10.875 4.41576 10.8092 4.57473 10.6919 4.69194C10.5747 4.80915 10.4158 4.875 10.25 4.875ZM15.875 14.25H13.375V5.5H15.875V14.25Z" fill="#F7941E"/>
</svg>
