<svg width="10" height="12" viewBox="0 0 10 12" fill="none" xmlns="http://www.w3.org/2000/svg">
<path d="M9.58333 1.84615H7.5V1.38462C7.5 1.01739 7.3683 0.66521 7.13388 0.405544C6.89946 0.145879 6.58152 0 6.25 0H3.75C3.41848 0 3.10054 0.145879 2.86612 0.405544C2.6317 0.66521 2.5 1.01739 2.5 1.38462V1.84615H0.416667C0.30616 1.84615 0.200179 1.89478 0.122039 1.98134C0.0438988 2.06789 0 2.18528 0 2.30769C0 2.4301 0.0438988 2.54749 0.122039 2.63405C0.200179 2.7206 0.30616 2.76923 0.416667 2.76923H0.833333V11.0769C0.833333 11.3217 0.921131 11.5565 1.07741 11.7296C1.23369 11.9027 1.44565 12 1.66667 12H8.33333C8.55435 12 8.76631 11.9027 8.92259 11.7296C9.07887 11.5565 9.16667 11.3217 9.16667 11.0769V2.76923H9.58333C9.69384 2.76923 9.79982 2.7206 9.87796 2.63405C9.9561 2.54749 10 2.4301 10 2.30769C10 2.18528 9.9561 2.06789 9.87796 1.98134C9.79982 1.89478 9.69384 1.84615 9.58333 1.84615ZM3.33333 1.38462C3.33333 1.26221 3.37723 1.14481 3.45537 1.05826C3.53351 0.971703 3.63949 0.923077 3.75 0.923077H6.25C6.36051 0.923077 6.46649 0.971703 6.54463 1.05826C6.62277 1.14481 6.66667 1.26221 6.66667 1.38462V1.84615H3.33333V1.38462ZM8.33333 11.0769H1.66667V2.76923H8.33333V11.0769ZM4.16667 5.07692V8.76923C4.16667 8.89164 4.12277 9.00903 4.04463 9.09559C3.96649 9.18214 3.86051 9.23077 3.75 9.23077C3.63949 9.23077 3.53351 9.18214 3.45537 9.09559C3.37723 9.00903 3.33333 8.89164 3.33333 8.76923V5.07692C3.33333 4.95452 3.37723 4.83712 3.45537 4.75057C3.53351 4.66401 3.63949 4.61538 3.75 4.61538C3.86051 4.61538 3.96649 4.66401 4.04463 4.75057C4.12277 4.83712 4.16667 4.95452 4.16667 5.07692ZM6.66667 5.07692V8.76923C6.66667 8.89164 6.62277 9.00903 6.54463 9.09559C6.46649 9.18214 6.36051 9.23077 6.25 9.23077C6.13949 9.23077 6.03351 9.18214 5.95537 9.09559C5.87723 9.00903 5.83333 8.89164 5.83333 8.76923V5.07692C5.83333 4.95452 5.87723 4.83712 5.95537 4.75057C6.03351 4.66401 6.13949 4.61538 6.25 4.61538C6.36051 4.61538 6.46649 4.66401 6.54463 4.75057C6.62277 4.83712 6.66667 4.95452 6.66667 5.07692Z" fill="black"/>
</svg>
