<svg width="28" height="34" viewBox="0 0 28 34" fill="none" xmlns="http://www.w3.org/2000/svg">
    <path d="M27.1344 7.36562L20.8844 1.11563C20.7682 0.999582 20.6303 0.907565 20.4786 0.84483C20.3268 0.782095 20.1642 0.749871 20 0.75H7.5C6.83696 0.75 6.20107 1.01339 5.73223 1.48223C5.26339 1.95107 5 2.58696 5 3.25V5.75H2.5C1.83696 5.75 1.20107 6.01339 0.732233 6.48223C0.263392 6.95107 0 7.58696 0 8.25V30.75C0 31.413 0.263392 32.0489 0.732233 32.5178C1.20107 32.9866 1.83696 33.25 2.5 33.25H20C20.663 33.25 21.2989 32.9866 21.7678 32.5178C22.2366 32.0489 22.5 31.413 22.5 30.75V28.25H25C25.663 28.25 26.2989 27.9866 26.7678 27.5178C27.2366 27.0489 27.5 26.413 27.5 25.75V8.25C27.5001 8.0858 27.4679 7.92318 27.4052 7.77144C27.3424 7.61969 27.2504 7.4818 27.1344 7.36562ZM20 30.75H2.5V8.25H14.4828L20 13.7672V26.975C20 26.9844 20 26.9922 20 27C20 27.0078 20 27.0156 20 27.025V30.75ZM25 25.75H22.5V13.25C22.5001 13.0858 22.4679 12.9232 22.4052 12.7714C22.3424 12.6197 22.2504 12.4818 22.1344 12.3656L15.8844 6.11563C15.7682 5.99958 15.6303 5.90757 15.4786 5.84483C15.3268 5.78209 15.1642 5.74987 15 5.75H7.5V3.25H19.4828L25 8.76719V25.75ZM16.25 20.75C16.25 21.0815 16.1183 21.3995 15.8839 21.6339C15.6495 21.8683 15.3315 22 15 22H7.5C7.16848 22 6.85054 21.8683 6.61612 21.6339C6.3817 21.3995 6.25 21.0815 6.25 20.75C6.25 20.4185 6.3817 20.1005 6.61612 19.8661C6.85054 19.6317 7.16848 19.5 7.5 19.5H15C15.3315 19.5 15.6495 19.6317 15.8839 19.8661C16.1183 20.1005 16.25 20.4185 16.25 20.75ZM16.25 25.75C16.25 26.0815 16.1183 26.3995 15.8839 26.6339C15.6495 26.8683 15.3315 27 15 27H7.5C7.16848 27 6.85054 26.8683 6.61612 26.6339C6.3817 26.3995 6.25 26.0815 6.25 25.75C6.25 25.4185 6.3817 25.1005 6.61612 24.8661C6.85054 24.6317 7.16848 24.5 7.5 24.5H15C15.3315 24.5 15.6495 24.6317 15.8839 24.8661C16.1183 25.1005 16.25 25.4185 16.25 25.75Z" fill="#F7941E"/>
</svg>
