<svg width="21" height="22" viewBox="0 0 21 22" fill="none" xmlns="http://www.w3.org/2000/svg">
<path d="M4.16663 15.6667H6.49996V19.1667H13.5V2.83333H6.49996V13.3333H4.16663V2.83333C4.16663 2.19167 4.3951 1.64236 4.85204 1.18542C5.30899 0.728472 5.85829 0.5 6.49996 0.5H13.5C14.1416 0.5 14.6909 0.728472 15.1479 1.18542C15.6048 1.64236 15.8333 2.19167 15.8333 2.83333V19.1667C15.8333 19.8083 15.6048 20.3576 15.1479 20.8146C14.6909 21.2715 14.1416 21.5 13.5 21.5H6.49996C5.85829 21.5 5.30899 21.2715 4.85204 20.8146C4.3951 20.3576 4.16663 19.8083 4.16663 19.1667V15.6667ZM9.99996 8.66667C10.3305 8.66667 10.6076 8.55486 10.8312 8.33125C11.0548 8.10764 11.1666 7.83056 11.1666 7.5C11.1666 7.16944 11.0548 6.89236 10.8312 6.66875C10.6076 6.44514 10.3305 6.33333 9.99996 6.33333C9.6694 6.33333 9.39232 6.44514 9.16871 6.66875C8.9451 6.89236 8.83329 7.16944 8.83329 7.5C8.83329 7.83056 8.9451 8.10764 9.16871 8.33125C9.39232 8.55486 9.6694 8.66667 9.99996 8.66667ZM19.3333 7.5C19.0027 7.5 18.7257 7.38819 18.502 7.16458C18.2784 6.94097 18.1666 6.66389 18.1666 6.33333V1.66667C18.1666 1.33611 18.2784 1.05903 18.502 0.835417C18.7257 0.611806 19.0027 0.5 19.3333 0.5C19.6638 0.5 19.9409 0.611806 20.1645 0.835417C20.3882 1.05903 20.5 1.33611 20.5 1.66667V6.33333C20.5 6.66389 20.3882 6.94097 20.1645 7.16458C19.9409 7.38819 19.6638 7.5 19.3333 7.5ZM1.83329 15.6667C1.50274 15.6667 1.22565 15.5549 1.00204 15.3313C0.778432 15.1076 0.666626 14.8306 0.666626 14.5C0.666626 14.1694 0.778432 13.8924 1.00204 13.6687C1.22565 13.4451 1.50274 13.3333 1.83329 13.3333H9.99996C10.3305 13.3333 10.6076 13.4451 10.8312 13.6687C11.0548 13.8924 11.1666 14.1694 11.1666 14.5C11.1666 14.8306 11.0548 15.1076 10.8312 15.3313C10.6076 15.5549 10.3305 15.6667 9.99996 15.6667H1.83329Z" fill="white"/>
</svg>
