<svg width="20" height="20" viewBox="0 0 20 20" fill="none" xmlns="http://www.w3.org/2000/svg">
<path fill-rule="evenodd" clip-rule="evenodd" d="M7.72943 1.99262C8.8214 0.394953 11.1782 0.394959 12.2702 1.99262L12.7021 2.62457C15.4081 6.58379 17.7331 10.7904 19.6458 15.1881L19.736 15.3955C20.4101 16.9453 19.3917 18.705 17.7122 18.8927C12.5865 19.4656 7.41304 19.4656 2.28741 18.8927C0.607868 18.705 -0.410496 16.9453 0.263559 15.3955L0.353774 15.1881C2.2665 10.7904 4.59147 6.58378 7.29751 2.62457L7.72943 1.99262ZM10.9998 6.99999C10.9998 7.55227 10.5521 7.99999 9.99982 7.99999C9.44753 7.99999 8.99982 7.55227 8.99982 6.99999C8.99982 6.4477 9.44753 5.99999 9.99982 5.99999C10.5521 5.99999 10.9998 6.4477 10.9998 6.99999ZM9.99982 9.74999C10.414 9.74999 10.7498 10.0858 10.7498 10.5V15.5C10.7498 15.9142 10.414 16.25 9.99982 16.25C9.5856 16.25 9.24982 15.9142 9.24982 15.5V10.5C9.24982 10.0858 9.5856 9.74999 9.99982 9.74999Z" fill="#565656"/>
</svg>
