<svg width="8" height="14" viewBox="0 0 8 14" fill="none" xmlns="http://www.w3.org/2000/svg">
<path d="M4.9 7.55H4.4V8.05V13.5H2.6V8.05V7.55H2.1H0.5V5.75H2.1H2.6V5.25V3.29C2.6 2.33362 2.90014 1.65047 3.36001 1.20557C3.82288 0.757773 4.50077 0.5 5.3501 0.5C5.92397 0.5 6.47542 0.527675 6.85 0.554526V1.95H6.3C5.53928 1.95 4.97473 2.13336 4.66027 2.60034C4.51408 2.81743 4.45377 3.05341 4.42621 3.26138C4.39995 3.4595 4.39998 3.66531 4.4 3.83556L4.4 3.85V5.25V5.75H4.9H6.70961L6.25961 7.55H4.9Z" stroke="#777777"/>
</svg>
