<svg xmlns="http://www.w3.org/2000/svg" width="35" height="35" viewBox="0 0 35 35" fill="none">
    <mask id="mask0_1063_13631" style="mask-type:alpha" maskUnits="userSpaceOnUse" x="0" y="0" width="33" height="33">
        <rect x="0.414062" y="0.132812" width="32" height="32" fill="#D9D9D9"/>
    </mask>
    <g mask="url(#mask0_1063_13631)">
        <path d="M23.082 20.1315C22.1487 20.1315 21.3598 19.8093 20.7154 19.1648C20.0709 18.5204 19.7487 17.7315 19.7487 16.7982C19.7487 15.8648 20.0709 15.076 20.7154 14.4315C21.3598 13.7871 22.1487 13.4648 23.082 13.4648C24.0154 13.4648 24.8043 13.7871 25.4487 14.4315C26.0931 15.076 26.4154 15.8648 26.4154 16.7982C26.4154 17.7315 26.0931 18.5204 25.4487 19.1648C24.8043 19.8093 24.0154 20.1315 23.082 20.1315ZM16.4154 26.7982V24.9315C16.4154 24.3982 16.5543 23.9037 16.832 23.4482C17.1098 22.9926 17.5043 22.6648 18.0154 22.4648C18.8154 22.1315 19.6431 21.8815 20.4987 21.7148C21.3543 21.5482 22.2154 21.4648 23.082 21.4648C23.9487 21.4648 24.8098 21.5482 25.6654 21.7148C26.5209 21.8815 27.3487 22.1315 28.1487 22.4648C28.6598 22.6648 29.0543 22.9926 29.332 23.4482C29.6098 23.9037 29.7487 24.3982 29.7487 24.9315V26.7982H16.4154ZM13.7487 16.1315C12.282 16.1315 11.0265 15.6093 9.98203 14.5648C8.93759 13.5204 8.41536 12.2648 8.41536 10.7982C8.41536 9.33151 8.93759 8.07595 9.98203 7.03151C11.0265 5.98707 12.282 5.46484 13.7487 5.46484C15.2154 5.46484 16.4709 5.98707 17.5154 7.03151C18.5598 8.07595 19.082 9.33151 19.082 10.7982C19.082 12.2648 18.5598 13.5204 17.5154 14.5648C16.4709 15.6093 15.2154 16.1315 13.7487 16.1315ZM3.08203 26.7982V23.0648C3.08203 22.3093 3.27092 21.6148 3.6487 20.9815C4.02648 20.3482 4.5487 19.8648 5.21536 19.5315C6.5487 18.8648 7.93203 18.3537 9.36537 17.9982C10.7987 17.6426 12.2598 17.4648 13.7487 17.4648C14.5265 17.4648 15.3043 17.5315 16.082 17.6648C16.8598 17.7982 17.6376 17.9537 18.4154 18.1315L16.1487 20.3982C15.7487 20.2871 15.3487 20.2148 14.9487 20.1815C14.5487 20.1482 14.1487 20.1315 13.7487 20.1315C12.4598 20.1315 11.1987 20.2871 9.96536 20.5982C8.73203 20.9093 7.5487 21.3537 6.41536 21.9315C6.19314 22.0426 6.02648 22.1982 5.91536 22.3982C5.80425 22.5982 5.7487 22.8204 5.7487 23.0648V24.1315H13.7487V26.7982H3.08203ZM13.7487 13.4648C14.482 13.4648 15.1098 13.2037 15.632 12.6815C16.1543 12.1593 16.4154 11.5315 16.4154 10.7982C16.4154 10.0648 16.1543 9.43707 15.632 8.91484C15.1098 8.39262 14.482 8.13151 13.7487 8.13151C13.0154 8.13151 12.3876 8.39262 11.8654 8.91484C11.3431 9.43707 11.082 10.0648 11.082 10.7982C11.082 11.5315 11.3431 12.1593 11.8654 12.6815C12.3876 13.2037 13.0154 13.4648 13.7487 13.4648Z" fill="#FDFDFD"/>
    </g>
</svg>