<svg width="24" height="25" viewBox="0 0 24 25" fill="none" xmlns="http://www.w3.org/2000/svg">
<g id="Solid/Brands/Gmail">
<path id="Subtract" fill-rule="evenodd" clip-rule="evenodd" d="M6.71169 4.33043C10.2302 4.01583 13.7698 4.01583 17.2883 4.33043L18.8057 4.4661C20.318 4.60132 21.54 5.7567 21.7596 7.25912C22.2541 10.6415 22.2541 14.0777 21.7596 17.4601C21.54 18.9625 20.318 20.1179 18.8057 20.2531L17.2883 20.3887C13.7698 20.7033 10.2302 20.7033 6.71169 20.3887L5.19435 20.2531C3.68198 20.1179 2.46003 18.9625 2.24038 17.4601C1.74588 14.0777 1.74588 10.6415 2.24038 7.25912C2.46003 5.7567 3.68198 4.60132 5.19435 4.4661L6.71169 4.33043ZM5.85557 7.19924C5.62315 7.07408 5.34204 7.08034 5.11541 7.2157C4.88878 7.35107 4.75 7.59561 4.75 7.85959V17.3596C4.75 17.7738 5.08579 18.1096 5.5 18.1096C5.91421 18.1096 6.25 17.7738 6.25 17.3596V9.11525L11.6444 12.0199C11.8664 12.1395 12.1336 12.1395 12.3556 12.0199L17.75 9.11525V17.3596C17.75 17.7738 18.0858 18.1096 18.5 18.1096C18.9142 18.1096 19.25 17.7738 19.25 17.3596V7.85959C19.25 7.59561 19.1112 7.35107 18.8846 7.2157C18.658 7.08034 18.3769 7.07408 18.1444 7.19924L12 10.5078L5.85557 7.19924Z" fill="#727272"/>
</g>
</svg>
