<svg width="24" height="25" viewBox="0 0 24 25" fill="none" xmlns="http://www.w3.org/2000/svg">
    <path fill-rule="evenodd" clip-rule="evenodd" d="M12 22.7812C17.5228 22.7812 22 18.3041 22 12.7812C22 7.2584 17.5228 2.78125 12 2.78125C6.47715 2.78125 2 7.2584 2 12.7812C2 18.3041 6.47715 22.7812 12 22.7812ZM12 8.53125C11.3096 8.53125 10.75 9.09089 10.75 9.78125C10.75 10.1955 10.4142 10.5312 10 10.5312C9.58579 10.5312 9.25 10.1955 9.25 9.78125C9.25 8.26247 10.4812 7.03125 12 7.03125C13.5188 7.03125 14.75 8.26247 14.75 9.78125C14.75 10.3275 14.59 10.8388 14.3138 11.268C14.1408 11.5367 13.9387 11.7932 13.7523 12.0249L13.6517 12.1496L13.6517 12.1496L13.6517 12.1496C13.497 12.341 13.3551 12.5167 13.2239 12.697C12.9003 13.1417 12.75 13.4759 12.75 13.7812V14.2812C12.75 14.6955 12.4142 15.0312 12 15.0312C11.5858 15.0312 11.25 14.6955 11.25 14.2812V13.7812C11.25 12.982 11.6424 12.321 12.011 11.8145C12.1667 11.6005 12.3373 11.3894 12.4924 11.1975L12.4925 11.1975L12.5836 11.0845C12.7688 10.8544 12.9265 10.6519 13.0524 10.4562L13.0524 10.4561C13.1774 10.262 13.25 10.0313 13.25 9.78125C13.25 9.09089 12.6904 8.53125 12 8.53125ZM11.992 16.7812C11.4397 16.7812 10.992 17.229 10.992 17.7812C10.992 18.3335 11.4397 18.7812 11.992 18.7812H12.001C12.5533 18.7812 13.001 18.3335 13.001 17.7812C13.001 17.229 12.5533 16.7812 12.001 16.7812H11.992Z" fill="#333333"/>
</svg>
