<svg width="33" height="28" viewBox="0 0 33 28" fill="none" xmlns="http://www.w3.org/2000/svg">
    <path d="M30.25 0.25H2.75C2.08696 0.25 1.45107 0.513392 0.982233 0.982233C0.513392 1.45107 0.25 2.08696 0.25 2.75V25.25C0.25 25.913 0.513392 26.5489 0.982233 27.0178C1.45107 27.4866 2.08696 27.75 2.75 27.75H30.25C30.913 27.75 31.5489 27.4866 32.0178 27.0178C32.4866 26.5489 32.75 25.913 32.75 25.25V2.75C32.75 2.08696 32.4866 1.45107 32.0178 0.982233C31.5489 0.513392 30.913 0.25 30.25 0.25ZM30.25 2.75V18.8047L26.1766 14.7328C25.9444 14.5006 25.6688 14.3164 25.3654 14.1907C25.0621 14.0651 24.7369 14.0004 24.4086 14.0004C24.0802 14.0004 23.7551 14.0651 23.4518 14.1907C23.1484 14.3164 22.8728 14.5006 22.6406 14.7328L19.5156 17.8578L12.6406 10.9828C12.1718 10.5143 11.5362 10.2512 10.8734 10.2512C10.2107 10.2512 9.57504 10.5143 9.10625 10.9828L2.75 17.3391V2.75H30.25ZM2.75 20.875L10.875 12.75L23.375 25.25H2.75V20.875ZM30.25 25.25H26.9109L21.2859 19.625L24.4109 16.5L30.25 22.3406V25.25ZM19 9.625C19 9.25416 19.11 8.89165 19.316 8.58331C19.522 8.27496 19.8149 8.03464 20.1575 7.89273C20.5001 7.75081 20.8771 7.71368 21.2408 7.78603C21.6045 7.85837 21.9386 8.03695 22.2008 8.29917C22.463 8.5614 22.6416 8.89549 22.714 9.2592C22.7863 9.62292 22.7492 9.99992 22.6073 10.3425C22.4654 10.6851 22.225 10.978 21.9167 11.184C21.6084 11.39 21.2458 11.5 20.875 11.5C20.3777 11.5 19.9008 11.3025 19.5492 10.9508C19.1975 10.5992 19 10.1223 19 9.625Z" fill="#F7941E"/>
</svg>
