<svg width="15" height="16" viewBox="0 0 15 16" fill="none" xmlns="http://www.w3.org/2000/svg">
<path d="M1.00049 7.3C1.00049 4.6603 1.00049 3.3401 1.82089 2.5204C2.64059 1.7 3.96079 1.7 6.60049 1.7H8.00049C10.6402 1.7 11.9604 1.7 12.7801 2.5204C13.6005 3.3401 13.6005 4.6603 13.6005 7.3V8.7C13.6005 11.3397 13.6005 12.6599 12.7801 13.4796C11.9604 14.3 10.6402 14.3 8.00049 14.3H6.60049C3.96079 14.3 2.64059 14.3 1.82089 13.4796C1.00049 12.6599 1.00049 11.3397 1.00049 8.7V7.3Z" stroke="#777777" stroke-width="2"/>
<path d="M11.0004 4.85C11.0004 5.15376 10.7541 5.4 10.4504 5.4C10.1466 5.4 9.90039 5.15376 9.90039 4.85C9.90039 4.54625 10.1466 4.3 10.4504 4.3C10.7541 4.3 11.0004 4.54625 11.0004 4.85Z" fill="#6F688D" stroke="#777777"/>
<path d="M7.30068 10.1C8.46048 10.1 9.40068 9.15979 9.40068 7.99999C9.40068 6.8402 8.46048 5.89999 7.30068 5.89999C6.14089 5.89999 5.20068 6.8402 5.20068 7.99999C5.20068 9.15979 6.14089 10.1 7.30068 10.1Z" stroke="#777777" stroke-width="2"/>
</svg>
