<svg width="22" height="20" viewBox="0 0 22 20" fill="none" xmlns="http://www.w3.org/2000/svg">
    <mask id="path-1-inside-1_727_555" fill="white">
        <path d="M10.9885 0C12.0926 0 14.659 0.631305 14.659 4.47739C14.659 5.5487 14.536 6.21739 14.45 6.68087C14.4329 6.77174 14.4169 6.86276 14.402 6.95391L14.401 6.95826C14.3944 7.00275 14.3988 7.04794 14.4141 7.09079C14.4293 7.13364 14.455 7.17314 14.4893 7.20662C14.5237 7.2401 14.5659 7.26677 14.6131 7.28483C14.6603 7.30289 14.7114 7.31192 14.763 7.3113C19.1626 7.3113 21.5119 8.32348 21.5119 9.35739C21.5119 9.82087 21.3119 10.2443 20.9849 10.5704C20.9748 10.5807 20.9673 10.5928 20.963 10.6058C20.9586 10.6188 20.9575 10.6324 20.9597 10.6458C20.9619 10.6592 20.9673 10.672 20.9756 10.6835C20.9839 10.6949 20.9949 10.7047 21.0079 10.7122C21.3102 10.8783 21.5596 11.108 21.733 11.38C21.9064 11.6521 21.9982 11.9577 22 12.2687C22 13.0165 21.5229 13.6583 20.7848 13.9583C20.7709 13.9641 20.7586 13.9723 20.7486 13.9826C20.7386 13.9928 20.7312 14.0047 20.7268 14.0176C20.7225 14.0305 20.7213 14.044 20.7234 14.0573C20.7255 14.0706 20.7307 14.0834 20.7388 14.0948C20.9459 14.38 21.0679 14.7148 21.0679 15.0757C21.0679 15.8983 20.5208 16.5896 19.6617 16.84C19.6346 16.8481 19.6123 16.8652 19.5996 16.8875C19.5869 16.9097 19.5848 16.9355 19.5937 16.9591C19.6547 17.1191 19.6917 17.2896 19.6917 17.467C19.6917 18.3852 17.9154 19.1304 13.7409 19.1304C10.6905 19.1304 8.58617 18.6565 7.77706 18.3165C7.18198 18.0661 6.50089 17.6122 6.50089 16.2817V10.9896C6.50089 9.49391 7.45902 8.49391 8.41215 7.49913C9.35828 6.51304 10.3014 5.53044 10.3014 4.07044C10.3014 2.90522 10.2104 2.16609 10.1424 1.62087C10.1034 1.30087 10.0724 1.04696 10.0724 0.813913C10.0724 0.355652 10.4564 0.00173913 10.9885 0ZM3.50048 9.56522H1.5002C0.500068 9.56522 0 11.9009 0 14.7826C0 17.6643 0.500068 20 1.5002 20H3.50048C3.76573 20 4.02012 19.9084 4.20768 19.7453C4.39524 19.5822 4.50061 19.3611 4.50061 19.1304V10.4348C4.50061 10.2042 4.39524 9.98298 4.20768 9.81991C4.02012 9.65683 3.76573 9.56522 3.50048 9.56522Z"/>
    </mask>
    <path d="M10.9885 0V-1.20001L10.9846 -1.19999L10.9885 0ZM14.45 6.68087L15.6294 6.90195L15.6298 6.89983L14.45 6.68087ZM14.402 6.95391L15.5715 7.22276L15.58 7.1858L15.5861 7.14839L14.402 6.95391ZM14.401 6.95826L13.2315 6.68942L13.2209 6.73548L13.2139 6.78224L14.401 6.95826ZM14.763 7.3113V6.1113H14.7558L14.7487 6.11139L14.763 7.3113ZM20.9849 10.5704L20.1376 9.72066L20.1325 9.72576L20.1274 9.73091L20.9849 10.5704ZM21.0079 10.7122L20.4088 11.752L20.4193 11.758L20.43 11.7639L21.0079 10.7122ZM22 12.2687H23.2L23.2 12.2619L22 12.2687ZM20.7848 13.9583L20.333 12.8465L20.3229 12.8507L20.7848 13.9583ZM20.7388 14.0948L19.7606 14.79L19.7677 14.7997L20.7388 14.0948ZM19.6617 16.84L19.3258 15.6879L19.3167 15.6907L19.6617 16.84ZM19.5937 16.9591L18.4709 17.3827L18.4724 17.3867L19.5937 16.9591ZM7.77706 18.3165L7.31159 19.4226L7.31218 19.4228L7.77706 18.3165ZM8.41215 7.49913L7.54626 6.66833L7.54567 6.66894L8.41215 7.49913ZM10.1424 1.62087L8.95119 1.76607L8.95161 1.7694L10.1424 1.62087ZM10.9885 1.2C11.3551 1.2 11.9739 1.31232 12.4774 1.72474C12.9308 2.09615 13.459 2.84714 13.459 4.47739H15.859C15.859 2.26156 15.104 0.773848 13.9982 -0.131911C12.9425 -0.996667 11.726 -1.2 10.9885 -1.2V1.2ZM13.459 4.47739C13.459 5.44249 13.3504 6.02908 13.2701 6.46191L15.6298 6.89983C15.7215 6.4057 15.859 5.6549 15.859 4.47739H13.459ZM13.2705 6.45979C13.2518 6.5595 13.2343 6.65939 13.2178 6.75944L15.5861 7.14839C15.5996 7.06614 15.6141 6.98399 15.6294 6.90195L13.2705 6.45979ZM13.2325 6.68507L13.2315 6.68942L15.5705 7.2271L15.5715 7.22276L13.2325 6.68507ZM13.2139 6.78224C13.1782 7.02345 13.2031 7.26711 13.2835 7.493L15.5447 6.68859C15.5945 6.82877 15.6106 6.98204 15.588 7.13428L13.2139 6.78224ZM13.2835 7.493C13.3635 7.7179 13.4933 7.91147 13.6515 8.06577L15.3271 6.34748C15.4167 6.43482 15.4952 6.54938 15.5447 6.68859L13.2835 7.493ZM13.6515 8.06577C13.8093 8.21959 13.9928 8.33239 14.1844 8.40565L15.0418 6.16402C15.1389 6.20116 15.238 6.26061 15.3271 6.34748L13.6515 8.06577ZM14.1844 8.40565C14.3759 8.4789 14.5776 8.51361 14.7774 8.51122L14.7487 6.11139C14.8453 6.11023 14.9447 6.12689 15.0418 6.16402L14.1844 8.40565ZM14.763 8.5113C16.8869 8.5113 18.4335 8.75753 19.405 9.08409C19.8955 9.24898 20.1754 9.41318 20.3089 9.52422C20.447 9.639 20.3119 9.58962 20.3119 9.35739H22.7119C22.7119 8.60821 22.2833 8.04459 21.8433 7.67879C21.3989 7.30926 20.8164 7.02656 20.1697 6.80917C18.8666 6.37117 17.0387 6.1113 14.763 6.1113V8.5113ZM20.3119 9.35739C20.3119 9.46054 20.27 9.58865 20.1376 9.72066L21.8321 11.4202C22.3538 10.9 22.7119 10.1812 22.7119 9.35739H20.3119ZM20.1274 9.73091C19.997 9.86409 19.8897 10.0312 19.8247 10.2257L22.1012 10.9858C22.0449 11.1544 21.9525 11.2974 21.8423 11.41L20.1274 9.73091ZM19.8247 10.2257C19.7595 10.4211 19.7416 10.631 19.7752 10.838L22.1442 10.4536C22.1734 10.6338 22.1578 10.8165 22.1012 10.9858L19.8247 10.2257ZM19.7752 10.838C19.8087 11.0444 19.8906 11.2316 20.0044 11.3883L21.9468 9.97866C22.0439 10.1125 22.1151 10.274 22.1442 10.4536L19.7752 10.838ZM20.0044 11.3883C20.1176 11.5443 20.2584 11.6653 20.4088 11.752L21.6069 9.67239C21.7314 9.74412 21.8502 9.84558 21.9468 9.97866L20.0044 11.3883ZM20.43 11.7639C20.5685 11.84 20.6635 11.9346 20.7211 12.0251L22.7449 10.735C22.4558 10.2814 22.052 9.91669 21.5858 9.6605L20.43 11.7639ZM20.7211 12.0251C20.7777 12.1138 20.7996 12.1994 20.8 12.2755L23.2 12.2619C23.1969 11.716 23.0352 11.1904 22.7449 10.735L20.7211 12.0251ZM20.8 12.2687C20.8 12.4616 20.6839 12.704 20.333 12.8466L21.2367 15.0699C22.362 14.6126 23.2 13.5714 23.2 12.2687H20.8ZM20.3229 12.8507C20.1685 12.9151 20.0191 13.012 19.8903 13.1439L21.6068 14.8212C21.498 14.9326 21.3734 15.013 21.2468 15.0658L20.3229 12.8507ZM19.8903 13.1439C19.7611 13.2762 19.6546 13.4418 19.5897 13.6344L21.864 14.4008C21.8078 14.5677 21.7161 14.7094 21.6068 14.8212L19.8903 13.1439ZM19.5897 13.6344C19.5245 13.8279 19.5057 14.036 19.5376 14.2415L21.9092 13.8731C21.937 14.052 21.9205 14.233 21.864 14.4008L19.5897 13.6344ZM19.5376 14.2415C19.5695 14.4465 19.6492 14.6331 19.7607 14.7899L21.717 13.3996C21.8122 13.5337 21.8815 13.6947 21.9092 13.8731L19.5376 14.2415ZM19.7677 14.7997C19.8425 14.9028 19.8679 14.9948 19.8679 15.0757H22.2679C22.2679 14.4347 22.0492 13.8572 21.71 13.3899L19.7677 14.7997ZM19.8679 15.0757C19.8679 15.3092 19.7284 15.5706 19.3259 15.6879L19.9975 17.9921C21.3132 17.6085 22.2679 16.4873 22.2679 15.0757H19.8679ZM19.3167 15.6907C19.027 15.7776 18.7388 15.9749 18.5575 16.2925L20.6417 17.4824C20.4859 17.7554 20.2422 17.9186 20.0067 17.9893L19.3167 15.6907ZM18.5575 16.2925C18.3707 16.6197 18.3335 17.0184 18.4709 17.3827L20.7164 16.5356C20.836 16.8526 20.8031 17.1998 20.6417 17.4824L18.5575 16.2925ZM18.4724 17.3867C18.49 17.4328 18.4917 17.4581 18.4917 17.467H20.8917C20.8917 17.121 20.8193 16.8055 20.7149 16.5316L18.4724 17.3867ZM18.4917 17.467C18.4917 17.2603 18.6068 17.1698 18.5672 17.2038C18.5074 17.2552 18.3259 17.3723 17.9246 17.4974C17.1278 17.7458 15.7799 17.9304 13.7409 17.9304V20.3304C15.8764 20.3304 17.5039 20.1425 18.6389 19.7887C19.2035 19.6127 19.7269 19.3714 20.1307 19.0247C20.5546 18.6607 20.8917 18.1328 20.8917 17.467H18.4917ZM13.7409 17.9304C10.7771 17.9304 8.84892 17.4653 8.24194 17.2102L7.31218 19.4228C8.32342 19.8478 10.6038 20.3304 13.7409 20.3304V17.9304ZM8.24253 17.2105C8.0261 17.1194 7.9219 17.0422 7.85906 16.9623C7.81047 16.9005 7.70089 16.7303 7.70089 16.2817H5.30089C5.30089 17.1636 5.53184 17.8856 5.97258 18.446C6.39905 18.9882 6.93294 19.2632 7.31159 19.4226L8.24253 17.2105ZM7.70089 16.2817V10.9896H5.30089V16.2817H7.70089ZM7.70089 10.9896C7.70089 10.0487 8.26668 9.38548 9.27862 8.32932L7.54567 6.66894C6.65135 7.60234 5.30089 8.93916 5.30089 10.9896H7.70089ZM9.27804 8.32993C10.1624 7.40825 11.5014 6.08723 11.5014 4.07044H9.1014C9.1014 4.97364 8.55418 5.61784 7.54626 6.66833L9.27804 8.32993ZM11.5014 4.07044C11.5014 2.83298 11.4037 2.03769 11.3332 1.47234L8.95161 1.7694C9.01711 2.29448 9.1014 2.97746 9.1014 4.07044H11.5014ZM11.3336 1.47567C11.2919 1.13391 11.2724 0.958992 11.2724 0.813913H8.87237C8.87237 1.13492 8.91485 1.46783 8.9512 1.76606L11.3336 1.47567ZM11.2724 0.813913C11.2724 0.936802 11.215 1.05464 11.1328 1.12851C11.0555 1.19794 10.9922 1.19999 10.9924 1.19999L10.9846 -1.19999C9.91941 -1.19651 8.87237 -0.426764 8.87237 0.813913H11.2724ZM3.50048 8.36522H1.5002V10.7652H3.50048V8.36522ZM1.5002 8.36522C0.714716 8.36522 0.177017 8.8418 -0.134438 9.28026C-0.441281 9.71223 -0.643351 10.2513 -0.784959 10.7861C-1.07239 11.8714 -1.2 13.2913 -1.2 14.7826H1.2C1.2 13.3922 1.32242 12.2034 1.53506 11.4005C1.64349 10.9911 1.75396 10.7661 1.82217 10.6701C1.88576 10.5806 1.78563 10.7652 1.5002 10.7652V8.36522ZM-1.2 14.7826C-1.2 16.2739 -1.07239 17.6938 -0.784959 18.7792C-0.643351 19.3139 -0.441281 19.853 -0.134438 20.285C0.177017 20.7234 0.714716 21.2 1.5002 21.2V18.8C1.78563 18.8 1.88576 18.9846 1.82217 18.8951C1.75396 18.7991 1.64349 18.5742 1.53506 18.1648C1.32242 17.3618 1.2 16.173 1.2 14.7826H-1.2ZM1.5002 21.2H3.50048V18.8H1.5002V21.2ZM3.50048 21.2C4.03398 21.2 4.57368 21.0172 4.99503 20.6509L3.42033 18.8397C3.44494 18.8183 3.46535 18.8088 3.47661 18.8048C3.48799 18.8007 3.49573 18.8 3.50048 18.8V21.2ZM4.99503 20.6509C5.4217 20.2799 5.70061 19.7378 5.70061 19.1304H3.30061C3.30061 18.9843 3.36879 18.8845 3.42033 18.8397L4.99503 20.6509ZM5.70061 19.1304V10.4348H3.30061V19.1304H5.70061ZM5.70061 10.4348C5.70061 9.8274 5.4217 9.28529 4.99503 8.91433L3.42033 10.7255C3.36879 10.6807 3.30061 10.5809 3.30061 10.4348H5.70061ZM4.99503 8.91433C4.57368 8.54798 4.03398 8.36522 3.50048 8.36522V10.7652C3.49573 10.7652 3.48799 10.7645 3.47661 10.7604C3.46535 10.7564 3.44494 10.7469 3.42033 10.7255L4.99503 8.91433Z" fill="#565656" mask="url(#path-1-inside-1_727_555)"/>
</svg>
