<svg xmlns="http://www.w3.org/2000/svg" width="25" height="25" viewBox="0 0 25 25" fill="none">
    <mask id="mask0_500_450025" style="mask-type:alpha" maskUnits="userSpaceOnUse" x="0" y="0" width="25" height="25">
        <rect x="0.883057" y="0.201416" width="24" height="24" fill="#D9D9D9"/>
    </mask>
    <g mask="url(#mask0_500_450025)">
        <path d="M16.0202 16.2212L13.4107 19.2528C12.5083 20.3013 11.3696 20.8769 9.99456 20.9799C8.61955 21.0828 7.40782 20.683 6.35938 19.7806C5.31094 18.8782 4.73526 17.7394 4.63234 16.3644C4.52943 14.9894 4.92919 13.7777 5.83162 12.7292L8.44105 9.6976L9.95687 11.0023L7.34744 14.034C6.80381 14.6656 6.56278 15.3927 6.62435 16.2153C6.68592 17.038 7.0325 17.7211 7.6641 18.2648C8.29569 18.8084 9.02281 19.0494 9.84547 18.9879C10.6681 18.9263 11.3513 18.5797 11.8949 17.9481L14.5043 14.9165L16.0202 16.2212ZM11.0314 15.8855L9.51562 14.5808L14.7345 8.51748L16.2503 9.8222L11.0314 15.8855ZM17.3249 14.7054L15.8091 13.4006L18.4185 10.369C18.9621 9.73741 19.2031 9.01029 19.1416 8.18763C19.08 7.36497 18.7334 6.68183 18.1018 6.13819C17.4702 5.59456 16.7431 5.35353 15.9205 5.41511C15.0978 5.47668 14.4147 5.82326 13.871 6.45485L11.2616 9.4865L9.74577 8.18178L12.3552 5.15014C13.2576 4.10169 14.3963 3.52601 15.7714 3.4231C17.1464 3.32019 18.3581 3.71994 19.4065 4.62237C20.455 5.5248 21.0307 6.66352 21.1336 8.03854C21.2365 9.41355 20.8367 10.6253 19.9343 11.6737L17.3249 14.7054Z" fill="#FDFDFD"/>
    </g>
</svg>