<svg width="14" height="14" viewBox="0 0 14 14" fill="none" xmlns="http://www.w3.org/2000/svg">
<path d="M4.23291 6.15054C4.19631 6.118 4.14906 6.10002 4.1001 6.1L4.23291 6.15054ZM4.23291 6.15054C4.26701 6.18086 4.28964 6.22187 4.29721 6.26667M4.23291 6.15054L4.29721 6.26667M4.29721 6.26667L4.3001 6.31494L4.3001 9.79944C4.3001 9.79949 4.3001 9.79955 4.3001 9.7996C4.3 9.85052 4.28048 9.89948 4.24553 9.93651C4.21053 9.97358 4.16271 9.99589 4.11182 9.99887C4.06093 10.0019 4.01082 9.9853 3.97173 9.95259C3.93526 9.92206 3.91095 9.87962 3.90296 9.83296L3.9001 9.78505V6.3C3.9001 6.24695 3.92117 6.19608 3.95868 6.15857C3.99617 6.12108 4.04701 6.10001 4.10003 6.1L4.29721 6.26667ZM7.52188 5.7152C7.9054 5.55145 8.4796 5.46685 8.97218 5.62114C9.22458 5.70131 9.45923 5.84429 9.63028 6.07608L9.6309 6.07692C9.78339 6.28267 9.87627 6.54473 9.8963 6.86713L9.90009 7.00679V9.79944C9.90004 9.85042 9.88052 9.89945 9.84553 9.93651C9.81053 9.97358 9.7627 9.99589 9.71182 9.99887C9.66093 10.0019 9.61082 9.9853 9.57173 9.95259C9.53526 9.92206 9.51095 9.87962 9.50296 9.83296L9.5001 9.78505V7C9.5001 6.68135 9.42042 6.46535 9.31108 6.31606L9.30444 6.30699L9.29739 6.29823C9.18035 6.15262 9.02025 6.04797 8.84022 5.9991C8.45982 5.88369 7.99145 5.94976 7.67907 6.08297L7.67846 6.08323C7.26306 6.26102 6.89072 6.53479 6.63321 6.79148L6.62668 6.79799L6.62039 6.80473L6.53429 6.89713L6.4001 7.04115V7.238L6.4001 9.79944C6.4001 9.79953 6.4001 9.79962 6.4001 9.79971C6.39997 9.85059 6.38046 9.89951 6.34553 9.93651C6.31053 9.97358 6.26271 9.99589 6.21182 9.99887C6.16093 10.0019 6.11082 9.9853 6.07173 9.95259C6.03526 9.92206 6.01095 9.87961 6.00296 9.83295L6.0001 9.78505V5.6C6.0001 5.54695 6.02117 5.49608 6.05868 5.45857C6.09618 5.42107 6.14705 5.4 6.2001 5.4H6.20017C6.24701 5.39999 6.29237 5.41642 6.32833 5.44643C6.3643 5.47644 6.38859 5.51811 6.39697 5.5642L6.52431 6.2641L7.13972 5.90723C7.26316 5.83565 7.39077 5.77153 7.52188 5.7152ZM11.1001 1.2C11.5244 1.2 11.9314 1.36857 12.2315 1.66863C12.5315 1.96868 12.7001 2.37565 12.7001 2.8V11.2C12.7001 11.6243 12.5315 12.0313 12.2315 12.3314C11.9314 12.6314 11.5244 12.8 11.1001 12.8H2.7001C2.27575 12.8 1.86878 12.6314 1.56873 12.3314C1.26867 12.0313 1.1001 11.6243 1.1001 11.2V2.8C1.1001 2.37565 1.26867 1.96868 1.56873 1.66863C1.86878 1.36857 2.27575 1.2 2.7001 1.2H11.1001ZM11.1001 1.6H2.7001C2.38184 1.6 2.07661 1.72643 1.85157 1.95147C1.62653 2.17651 1.5001 2.48174 1.5001 2.8V11.2C1.5001 11.5183 1.62653 11.8235 1.85157 12.0485C2.07661 12.2736 2.38184 12.4 2.7001 12.4H11.1001C11.4184 12.4 11.7236 12.2736 11.9486 12.0485C12.1737 11.8235 12.3001 11.5183 12.3001 11.2V2.8C12.3001 2.48174 12.1737 2.17651 11.9486 1.95147C11.7236 1.72642 11.4184 1.6 11.1001 1.6ZM4.1001 4C4.15314 4 4.20401 4.02107 4.24152 4.05857C4.27903 4.09608 4.3001 4.14695 4.3001 4.2C4.3001 4.25304 4.27903 4.30391 4.24152 4.34142C4.20401 4.37892 4.15314 4.4 4.1001 4.4C4.04705 4.4 3.99618 4.37892 3.95868 4.34142C3.92117 4.30391 3.9001 4.25304 3.9001 4.2C3.9001 4.14695 3.92117 4.09608 3.95868 4.05857C3.99618 4.02107 4.04705 4 4.1001 4Z" fill="black" stroke="#777777"/>
</svg>
