<svg width="24" height="25" viewBox="0 0 24 25" fill="none" xmlns="http://www.w3.org/2000/svg">
    <path d="M15 18.4062C14.9264 20.2581 13.3831 21.8306 11.3156 21.78C10.8346 21.7682 10.2401 21.6006 9.05112 21.2652C6.18961 20.458 3.70555 19.1015 3.10956 16.0627C3 15.5042 3 14.8756 3 13.6185V11.9439C3 10.6869 3 10.0583 3.10956 9.49971C3.70555 6.4609 6.18961 5.10441 9.05112 4.29728C10.2401 3.96189 10.8346 3.7942 11.3156 3.78244C13.3831 3.73186 14.9264 5.30432 15 7.15626" fill="#333333"/>
    <path d="M15 18.4062C14.9264 20.2581 13.3831 21.8306 11.3156 21.78C10.8346 21.7682 10.2401 21.6006 9.05112 21.2652C6.18961 20.458 3.70555 19.1015 3.10956 16.0627C3 15.5042 3 14.8756 3 13.6185V11.9439C3 10.6869 3 10.0583 3.10956 9.49971C3.70555 6.4609 6.18961 5.10441 9.05112 4.29728C10.2401 3.96189 10.8346 3.7942 11.3156 3.78244C13.3831 3.73186 14.9264 5.30432 15 7.15626" stroke="#FF5653" stroke-width="1.5" stroke-linecap="round"/>
    <path d="M21 12.7812H10M21 12.7812C21 12.081 19.0057 10.7728 18.5 10.2812M21 12.7812C21 13.4815 19.0057 14.7898 18.5 15.2812" stroke="#FF5653" stroke-width="1.5" stroke-linecap="round" stroke-linejoin="round"/>
</svg>
