<svg width="18" height="16" viewBox="0 0 18 16" fill="none" xmlns="http://www.w3.org/2000/svg">
    <path d="M5 5.99979C4.30964 5.99979 3.75 6.55944 3.75 7.24979C3.75 7.94015 4.30964 8.49979 5 8.49979C5.69036 8.49979 6.25 7.94015 6.25 7.24979C6.25 6.55944 5.69036 5.99979 5 5.99979Z" fill="#C4D3F6"/>
    <path d="M9 5.99979C8.30964 5.99979 7.75 6.55944 7.75 7.24979C7.75 7.94015 8.30964 8.49979 9 8.49979C9.69036 8.49979 10.25 7.94015 10.25 7.24979C10.25 6.55944 9.69036 5.99979 9 5.99979Z" fill="#C4D3F6"/>
    <path d="M11.75 7.24979C11.75 6.55944 12.3096 5.99979 13 5.99979C13.6904 5.99979 14.25 6.55944 14.25 7.24979C14.25 7.94015 13.6904 8.49979 13 8.49979C12.3096 8.49979 11.75 7.94015 11.75 7.24979Z" fill="#C4D3F6"/>
    <path fill-rule="evenodd" clip-rule="evenodd" d="M13.1007 1.09258C10.4065 0.862825 7.69826 0.849492 5.00194 1.05271L4.80871 1.06728C2.23741 1.26107 0.25 3.4039 0.25 5.9825V14.4998C0.25 14.7637 0.388666 15.0081 0.615148 15.1435C0.841631 15.2789 1.12261 15.2854 1.35504 15.1604L5.26583 13.0587C5.44774 12.961 5.65104 12.9098 5.85756 12.9098H14.834C15.9661 12.9098 16.9362 12.1004 17.1392 10.9867C17.5505 8.72942 17.5829 6.41945 17.2353 4.15154L17.1329 3.48322C16.9464 2.26647 15.951 1.33565 14.7245 1.23106L13.1007 1.09258ZM5.11468 2.54847C7.73103 2.35128 10.359 2.36421 12.9733 2.58716L14.597 2.72563C15.1334 2.77137 15.5686 3.17841 15.6502 3.71049L15.7526 4.37881C16.075 6.4821 16.0449 8.62439 15.6635 10.7178C15.5904 11.1185 15.2413 11.4098 14.834 11.4098H5.85756C5.40322 11.4098 4.95596 11.5224 4.55575 11.7374L1.75 13.2453V5.9825C1.75 4.1886 3.13262 2.69786 4.92144 2.56303L5.11468 2.54847Z" fill="#C4D3F6"/>
</svg>
