<svg width="24" height="25" viewBox="0 0 24 25" fill="none" xmlns="http://www.w3.org/2000/svg">
    <path d="M7.5 9.78076V7.28076C7.5 4.79548 9.51472 2.78076 12 2.78076C14.4853 2.78076 16.5 4.79548 16.5 7.28076V9.78076" stroke="#333333" stroke-width="2" stroke-linecap="round" stroke-linejoin="round"/>
    <path fill-rule="evenodd" clip-rule="evenodd" d="M7.55966 22.6817C5.87613 22.6043 4.49269 21.2958 4.26781 19.6255C4.12104 18.5355 4 17.4184 4 16.2808C4 15.1432 4.12104 14.0261 4.26781 12.9361C4.49269 11.2658 5.87613 9.95725 7.55966 9.87985C8.97627 9.81473 10.4153 9.78076 12 9.78076C13.5847 9.78076 15.0237 9.81473 16.4403 9.87985C18.1239 9.95725 19.5073 11.2658 19.7322 12.9361C19.879 14.0261 20 15.1432 20 16.2808C20 17.4184 19.879 18.5355 19.7322 19.6255C19.5073 21.2958 18.1239 22.6043 16.4403 22.6817C15.0237 22.7468 13.5847 22.7808 12 22.7808C10.4153 22.7808 8.97627 22.7468 7.55966 22.6817ZM11.9961 15.2808C11.4438 15.2808 10.9961 15.7285 10.9961 16.2808C10.9961 16.833 11.4438 17.2808 11.9961 17.2808H12.0051C12.5574 17.2808 13.0051 16.833 13.0051 16.2808C13.0051 15.7285 12.5574 15.2808 12.0051 15.2808H11.9961Z" fill="#333333"/>
</svg>
