<svg width="20" height="20" viewBox="0 0 20 20" fill="none" xmlns="http://www.w3.org/2000/svg">
    <path fill-rule="evenodd" clip-rule="evenodd" d="M20 7.81396V11.7477C17.1434 11.7477 15.2874 14.8504 16.7336 17.3139L13.2695 19.2807C11.8046 16.7855 8.1969 16.7856 6.73205 19.2808L3.26795 17.314C4.71425 14.8505 2.85668 11.7477 0 11.7477V7.81396C2.85673 7.81396 4.71586 4.71111 3.26953 2.24757L6.73363 0.280762C8.1978 2.77471 11.8038 2.77481 13.2679 0.280862L16.732 2.24767C15.2857 4.71117 17.1433 7.81396 20 7.81396ZM8.75003 7.78076C8.75003 7.09041 9.30967 6.53076 10.0001 6.53076C10.6904 6.53076 11.2501 7.09042 11.2501 7.78076C11.2501 8.47112 10.6904 9.03076 10.0001 9.03076C9.30966 9.03076 8.75003 8.47113 8.75003 7.78076ZM10.0001 5.03076C8.48125 5.03076 7.25003 6.26197 7.25003 7.78076C7.25003 9.29959 8.48126 10.5308 10.0001 10.5308C11.5187 10.5308 12.7501 9.2996 12.7501 7.78076C12.7501 6.26196 11.5188 5.03076 10.0001 5.03076ZM7.1492 14.6563C7.71929 13.6708 8.78302 13.0105 9.99996 13.0105C11.217 13.0105 12.2807 13.6708 12.8508 14.6563C13.0582 15.0148 13.5169 15.1374 13.8755 14.93C14.234 14.7226 14.3566 14.2638 14.1492 13.9052C13.322 12.4753 11.7741 11.5105 9.99996 11.5105C8.22589 11.5105 6.67797 12.4753 5.8508 13.9052C5.64339 14.2638 5.76591 14.7226 6.12445 14.93C6.48299 15.1374 6.94179 15.0149 7.1492 14.6563Z" fill="#333333"/>
</svg>
