<svg width="24" height="25" viewBox="0 0 24 25" fill="none" xmlns="http://www.w3.org/2000/svg">
    <path fill-rule="evenodd" clip-rule="evenodd" d="M21 9.06105V11.9641C21 17.5892 15.9372 20.9642 13.406 22.3001L13.4058 22.3002C12.7988 22.6206 12.4954 22.7807 12 22.7807C11.5046 22.7807 11.2012 22.6206 10.5942 22.3002L10.594 22.3001C8.06277 20.9642 3 17.5892 3 11.9641V9.06105C3 7.42105 3 6.60105 3.40411 6.06605C3.80822 5.53106 4.72193 5.27132 6.54933 4.75186C7.79784 4.39696 8.89839 3.96939 9.77771 3.57905L9.77818 3.57884C10.9768 3.04679 11.5761 2.78076 12 2.78076C12.4239 2.78076 13.0232 3.04678 14.2218 3.57882L14.2223 3.57905C15.1016 3.96939 16.2022 4.39696 17.4507 4.75186C19.2781 5.27132 20.1918 5.53106 20.5959 6.06605C21 6.60105 21 7.42105 21 9.06105ZM13 11.251C13 10.6987 12.5523 10.251 12 10.251C11.4477 10.251 11 10.6987 11 11.251V14.3105C11 14.8628 11.4477 15.3105 12 15.3105C12.5523 15.3105 13 14.8628 13 14.3105V11.251Z" fill="#333333"/>
</svg>
