<svg width="18" height="18" viewBox="0 0 18 18" fill="none" xmlns="http://www.w3.org/2000/svg">
    <path d="M9.00001 5.25028C8.25833 5.25028 7.5333 5.47021 6.91662 5.88227C6.29993 6.29432 5.81929 6.87999 5.53546 7.56522C5.25163 8.25044 5.17737 9.00444 5.32206 9.73187C5.46676 10.4593 5.82391 11.1275 6.34836 11.6519C6.8728 12.1764 7.54099 12.5335 8.26842 12.6782C8.99585 12.8229 9.74985 12.7487 10.4351 12.4648C11.1203 12.181 11.706 11.7004 12.118 11.0837C12.5301 10.467 12.75 9.74196 12.75 9.00028C12.749 8.00604 12.3536 7.05281 11.6505 6.34977C10.9475 5.64673 9.99425 5.25131 9.00001 5.25028ZM9.00001 11.5003C8.50555 11.5003 8.0222 11.3537 7.61108 11.079C7.19996 10.8043 6.87953 10.4138 6.69031 9.95699C6.50109 9.50017 6.45158 8.99751 6.54804 8.51256C6.64451 8.0276 6.88261 7.58214 7.23224 7.23251C7.58187 6.88288 8.02733 6.64478 8.51228 6.54832C8.99723 6.45185 9.4999 6.50136 9.95671 6.69058C10.4135 6.8798 10.804 7.20023 11.0787 7.61136C11.3534 8.02248 11.5 8.50583 11.5 9.00028C11.5 9.66332 11.2366 10.2992 10.7678 10.768C10.2989 11.2369 9.66305 11.5003 9.00001 11.5003ZM15.875 9.16903C15.8781 9.05653 15.8781 8.94403 15.875 8.83153L17.0406 7.37528C17.1017 7.29882 17.1441 7.20907 17.1641 7.11327C17.1842 7.01747 17.1815 6.91829 17.1563 6.82372C16.9652 6.10544 16.6793 5.41579 16.3063 4.77294C16.2574 4.68881 16.1896 4.61725 16.1082 4.56394C16.0268 4.51064 15.9341 4.47707 15.8375 4.46591L13.9844 4.25966C13.9073 4.17841 13.8292 4.10028 13.75 4.02528L13.5313 2.16747C13.52 2.07076 13.4863 1.97802 13.4329 1.89663C13.3794 1.81525 13.3077 1.74748 13.2234 1.69872C12.5803 1.32633 11.8908 1.04078 11.1727 0.849499C11.078 0.82434 10.9788 0.821767 10.883 0.841986C10.7872 0.862206 10.6975 0.904653 10.6211 0.965905L9.16876 2.12528C9.05626 2.12528 8.94376 2.12528 8.83126 2.12528L7.37501 0.961999C7.29855 0.90088 7.2088 0.858575 7.113 0.838492C7.01719 0.818408 6.91801 0.821108 6.82344 0.846373C6.10528 1.0378 5.41567 1.32363 4.77266 1.69637C4.68853 1.74522 4.61697 1.81303 4.56367 1.89441C4.51037 1.97579 4.4768 2.06849 4.46563 2.16512L4.25938 4.02137C4.17813 4.09898 4.10001 4.1771 4.02501 4.25575L2.16719 4.46903C2.07048 4.48028 1.97774 4.51397 1.89636 4.56741C1.81497 4.62085 1.7472 4.69257 1.69844 4.77684C1.32606 5.41994 1.0405 6.10953 0.849224 6.82762C0.824065 6.92225 0.821492 7.02147 0.841712 7.11727C0.861931 7.21308 0.904378 7.30279 0.96563 7.37919L2.12501 8.83153C2.12501 8.94403 2.12501 9.05653 2.12501 9.16903L0.961724 10.6253C0.900605 10.7017 0.8583 10.7915 0.838217 10.8873C0.818134 10.9831 0.820833 11.0823 0.846099 11.1768C1.03718 11.8951 1.32303 12.5848 1.6961 13.2276C1.74495 13.3118 1.81276 13.3833 1.89414 13.4366C1.97551 13.4899 2.06821 13.5235 2.16485 13.5347L4.01797 13.7409C4.09558 13.8222 4.1737 13.9003 4.25235 13.9753L4.46876 15.8331C4.48001 15.9298 4.5137 16.0225 4.56714 16.1039C4.62058 16.1853 4.6923 16.2531 4.77657 16.3018C5.41967 16.6742 6.10926 16.9598 6.82735 17.1511C6.92198 17.1762 7.02119 17.1788 7.117 17.1586C7.21281 17.1384 7.30252 17.0959 7.37891 17.0347L8.83126 15.8753C8.94376 15.8784 9.05626 15.8784 9.16876 15.8753L10.625 17.0409C10.7015 17.102 10.7912 17.1443 10.887 17.1644C10.9828 17.1845 11.082 17.1818 11.1766 17.1565C11.8948 16.9654 12.5845 16.6796 13.2274 16.3065C13.3115 16.2577 13.383 16.1899 13.4363 16.1085C13.4896 16.0271 13.5232 15.9344 13.5344 15.8378L13.7406 13.9847C13.8219 13.9076 13.9 13.8294 13.975 13.7503L15.8328 13.5315C15.9295 13.5203 16.0223 13.4866 16.1037 13.4331C16.185 13.3797 16.2528 13.308 16.3016 13.2237C16.674 12.5806 16.9595 11.891 17.1508 11.1729C17.1759 11.0783 17.1785 10.9791 17.1583 10.8833C17.1381 10.7875 17.0956 10.6978 17.0344 10.6214L15.875 9.16903ZM14.6172 8.66122C14.6305 8.88706 14.6305 9.1135 14.6172 9.33934C14.6079 9.49397 14.6563 9.64654 14.7531 9.76747L15.8617 11.1526C15.7345 11.5569 15.5716 11.9491 15.375 12.3245L13.6094 12.5245C13.4556 12.5416 13.3137 12.6151 13.2109 12.7308C13.0606 12.8999 12.9004 13.0601 12.7313 13.2104C12.6156 13.3131 12.5421 13.4551 12.525 13.6089L12.3289 15.3729C11.9535 15.5697 11.5613 15.7325 11.157 15.8597L9.7711 14.7511C9.6602 14.6625 9.52243 14.6142 9.38047 14.6143H9.34297C9.11713 14.6276 8.8907 14.6276 8.66485 14.6143C8.51023 14.605 8.35766 14.6535 8.23672 14.7503L6.84766 15.8597C6.44339 15.7324 6.05122 15.5696 5.67579 15.3729L5.47579 13.6097C5.45872 13.4559 5.38523 13.3139 5.26954 13.2112C5.1004 13.0608 4.94023 12.9007 4.78985 12.7315C4.68714 12.6158 4.54517 12.5423 4.39141 12.5253L2.62735 12.3284C2.43062 11.953 2.26774 11.5608 2.14063 11.1565L3.24922 9.77059C3.34603 9.64966 3.39447 9.49709 3.38516 9.34247C3.37188 9.11662 3.37188 8.89019 3.38516 8.66434C3.39447 8.50972 3.34603 8.35715 3.24922 8.23622L2.14063 6.84794C2.26784 6.44367 2.43072 6.0515 2.62735 5.67606L4.39063 5.47606C4.54439 5.45899 4.68636 5.3855 4.78907 5.26981C4.93945 5.10068 5.09962 4.94051 5.26876 4.79012C5.38491 4.68735 5.4587 4.54506 5.47579 4.39091L5.67188 2.62762C6.04727 2.4309 6.43945 2.26801 6.84376 2.1409L8.22969 3.2495C8.35063 3.3463 8.5032 3.39474 8.65782 3.38544C8.88367 3.37216 9.1101 3.37216 9.33594 3.38544C9.49057 3.39474 9.64314 3.3463 9.76407 3.2495L11.1524 2.1409C11.5566 2.26811 11.9488 2.43099 12.3242 2.62762L12.5242 4.39091C12.5413 4.54467 12.6148 4.68663 12.7305 4.78934C12.8996 4.93973 13.0598 5.0999 13.2102 5.26903C13.3129 5.38472 13.4548 5.45821 13.6086 5.47528L15.3727 5.67137C15.5694 6.04677 15.7323 6.43894 15.8594 6.84325L14.7508 8.22919C14.6531 8.35114 14.6046 8.50528 14.6149 8.66122H14.6172Z" fill="#323B4A"/>
</svg>
