<svg width="353" height="286" viewBox="0 0 353 286" fill="none" xmlns="http://www.w3.org/2000/svg">
<rect width="353" height="286" rx="24" fill="#FEF4E9"/>
<path fill-rule="evenodd" clip-rule="evenodd" d="M177.048 33.6904C205.713 34.2084 233.03 45.9596 253.119 66.415C273.208 86.8704 284.464 114.395 284.464 143.065C284.464 171.736 273.208 199.26 253.119 219.716C233.03 240.171 205.713 251.922 177.048 252.44C148.382 251.922 121.065 240.171 100.976 219.716C80.887 199.26 69.6313 171.736 69.6313 143.065C69.6313 114.395 80.887 86.8704 100.976 66.415C121.065 45.9596 148.382 34.2084 177.048 33.6904ZM154.333 178.595L127.548 151.786C125.355 149.586 124.124 146.606 124.124 143.5C124.124 140.394 125.355 137.414 127.548 135.214C129.751 133.024 132.732 131.794 135.839 131.794C138.946 131.794 141.927 133.024 144.131 135.214L163 154.107L209.964 107.143C212.165 104.95 215.144 103.719 218.25 103.719C221.356 103.719 224.336 104.95 226.536 107.143C228.725 109.344 229.955 112.323 229.955 115.429C229.955 118.534 228.725 121.513 226.536 123.714L171.274 178.976C170.152 180.092 168.816 180.97 167.347 181.557C165.877 182.145 164.305 182.429 162.723 182.393C161.14 182.358 159.582 182.003 158.14 181.35C156.699 180.698 155.404 179.761 154.333 178.595Z" fill="#F7941E"/>
</svg>
