<svg width="20" height="23" viewBox="0 0 20 23" fill="none" xmlns="http://www.w3.org/2000/svg">
    <path d="M4.58301 1.25049H12.083C13.6937 1.25049 14.9998 2.55582 15 4.1665V11.6665C15 13.2773 13.6938 14.5835 12.083 14.5835H4.58301C2.97233 14.5833 1.66699 13.2772 1.66699 11.6665V4.1665C1.66717 2.55593 2.97244 1.25066 4.58301 1.25049Z" fill="#FAE9E6" stroke="#333333" stroke-width="0.833333"/>
    <path d="M6.4347 14.9122V12.1491V14.9122ZM6.4347 12.1491V7.63157C6.4347 6.86856 7.04408 6.25 7.7958 6.25C8.54752 6.25 9.15694 6.86855 9.15694 7.63157V11.3597L11.5501 11.7367C13.0502 11.9651 13.8002 12.0792 14.3285 12.4005C15.2012 12.9312 15.8334 13.7281 15.8334 14.8914C15.8334 15.7017 15.636 16.2454 15.1564 17.706C14.852 18.6328 14.6999 19.0962 14.4517 19.463C14.0431 20.067 13.4404 20.5079 12.7468 20.7103C12.3254 20.8333 11.8442 20.8333 10.8818 20.8333H9.78902C8.4011 20.8333 7.70712 20.8333 7.11123 20.5689C6.842 20.4494 6.59082 20.2918 6.36515 20.1008C5.86565 19.6782 5.5553 19.0481 4.9346 17.788C4.43125 16.7662 4.17957 16.2552 4.16733 15.7256C4.1618 15.4867 4.19194 15.2483 4.25669 15.0186C4.40026 14.5092 4.77085 14.0793 5.512 13.2195L6.4347 12.1491Z" fill="#FAE9E6"/>
    <path d="M6.4347 14.9122V12.1491M6.4347 12.1491V7.63157C6.4347 6.86856 7.04408 6.25 7.7958 6.25C8.54752 6.25 9.15694 6.86855 9.15694 7.63157V11.3597L11.5501 11.7367C13.0502 11.9651 13.8002 12.0792 14.3285 12.4005C15.2012 12.9312 15.8334 13.7281 15.8334 14.8914C15.8334 15.7018 15.636 16.2454 15.1564 17.706C14.852 18.6328 14.6999 19.0962 14.4517 19.463C14.0431 20.067 13.4404 20.5079 12.7468 20.7103C12.3254 20.8333 11.8442 20.8333 10.8818 20.8333H9.78902C8.4011 20.8333 7.70712 20.8333 7.11123 20.5689C6.842 20.4494 6.59082 20.2918 6.36515 20.1008C5.86565 19.6782 5.5553 19.0481 4.9346 17.788C4.43125 16.7662 4.17957 16.2552 4.16733 15.7256C4.1618 15.4867 4.19194 15.2483 4.25669 15.0186C4.40026 14.5092 4.77085 14.0793 5.512 13.2195L6.4347 12.1491Z" stroke="#333333" stroke-width="1.25" stroke-linecap="round" stroke-linejoin="round"/>
    <path d="M11.097 7.49984C11.097 5.65889 9.6046 4.1665 7.76369 4.1665C5.92274 4.1665 4.43036 5.65889 4.43036 7.49984" stroke="#333333" stroke-width="1.25" stroke-linecap="round" stroke-linejoin="round"/>
</svg>
