<svg width="24" height="25" viewBox="0 0 24 25" fill="none" xmlns="http://www.w3.org/2000/svg">
    <g clip-path="url(#clip0_3388_613)">
        <path d="M12 24.7808C18.6274 24.7808 24 19.4082 24 12.7808C24 6.15334 18.6274 0.780762 12 0.780762C5.37258 0.780762 0 6.15334 0 12.7808C0 19.4082 5.37258 24.7808 12 24.7808Z" fill="#333333"/>
        <path fill-rule="evenodd" clip-rule="evenodd" d="M11.4353 18.9645C7.93414 18.9645 5.05414 16.1127 5.05414 12.5833C5.05414 9.05391 7.93414 6.20215 11.4353 6.20215C14.9647 6.20215 17.8165 9.08215 17.8165 12.5833C17.8165 13.4304 17.6471 14.2774 17.3083 15.068L16.7718 13.4021C16.6871 13.148 16.4612 13.0069 16.2071 13.0069C15.953 13.0069 15.7271 13.148 15.6706 13.4021L15.2188 14.7574C15.1059 14.6727 14.993 14.588 14.9083 14.5316C14.4 14.221 14.0894 14.1645 13.6659 14.0798C13.5812 14.0516 13.4683 14.0233 13.3553 14.0233C13.1012 13.9669 12.9035 13.6845 12.7906 13.4586C13.8071 13.5433 14.4283 12.9504 14.4283 12.9221C14.4847 12.8657 14.513 12.781 14.4847 12.7245C14.4565 12.6398 14.4 12.6116 14.3435 12.5833C14.3153 12.5833 14.2024 12.4986 13.9483 12.188C13.7224 11.9057 13.6941 11.3974 13.6377 10.8327C13.5247 9.67509 13.4118 8.20685 11.4353 8.09391C9.45884 8.17862 9.3459 9.64685 9.23296 10.8327C9.20473 11.3692 9.14826 11.9057 8.92237 12.188C8.69649 12.4986 8.58355 12.5833 8.55531 12.5833C8.49884 12.6116 8.44237 12.6398 8.41414 12.6963C8.3859 12.781 8.41414 12.8657 8.47061 12.9221C8.47061 12.9504 9.06355 13.5151 10.1083 13.4586C9.99531 13.7127 9.79767 13.9669 9.54355 14.0233C9.43061 14.0516 9.31767 14.0516 9.23296 14.0798C8.80943 14.1645 8.49884 14.221 7.99061 14.5316C7.48237 14.8139 7.22826 15.3786 7.14355 15.6045C7.14355 15.6045 7.11531 15.6327 7.11531 15.661C7.08708 15.7174 7.08708 15.7739 7.11531 15.8304C7.14355 15.8869 7.20002 15.9151 7.25649 15.9433C7.28473 15.9433 7.28473 15.9433 7.31296 15.9716C8.75296 16.7904 10.1365 17.0445 11.3506 17.0445C12.113 17.0445 12.8188 16.9316 13.4118 16.7904L14.3435 17.468L14.033 18.3998C13.2424 18.7669 12.3388 18.9645 11.4353 18.9645ZM15.1059 15.1245C15.0494 15.1245 14.993 15.1245 14.9647 15.068C14.8518 14.9833 14.7671 14.9269 14.6824 14.8704C14.2588 14.6163 14.0047 14.5598 13.5812 14.4751C13.4965 14.4469 13.4118 14.4186 13.2988 14.4186C12.593 14.2492 12.3388 13.3174 12.3106 13.2892C12.2824 13.2327 12.3106 13.148 12.3671 13.0916C12.3953 13.0633 12.48 13.0351 12.5365 13.0351C13.2141 13.1763 13.7224 12.9786 13.9765 12.8092C13.8918 12.7245 13.7788 12.6116 13.6659 12.4704C13.3553 12.0751 13.3271 11.5104 13.2706 10.8892C13.1577 9.73156 13.073 8.60215 11.4635 8.54568C9.85414 8.60215 9.76943 9.70332 9.65649 10.8892C9.60002 11.5104 9.54355 12.0751 9.2612 12.4704C9.14826 12.6116 9.03531 12.7245 8.95061 12.8092C9.20473 12.9786 9.71296 13.2045 10.3906 13.0633C10.4471 13.0351 10.5318 13.0633 10.56 13.1198C10.6165 13.1763 10.6447 13.2327 10.6165 13.3174C10.6165 13.3457 10.3341 14.2774 9.62826 14.4186C9.51531 14.4469 9.43061 14.4751 9.31767 14.4751C8.92237 14.5598 8.64002 14.6163 8.21649 14.8704C7.87767 15.068 7.68002 15.4351 7.56708 15.661C9.60002 16.7621 11.52 16.7621 12.96 16.4798L12.7341 16.3104C12.5365 16.1692 12.4518 15.8869 12.5365 15.661C12.6212 15.4351 12.8471 15.2657 13.1012 15.2657H15.0494L15.1059 15.1245Z" fill="white"/>
        <path fill-rule="evenodd" clip-rule="evenodd" d="M18.1271 19.6987C18.0706 19.6987 18.0424 19.6987 18.0141 19.6705L16.2071 18.3434L14.4 19.6705C14.3435 19.727 14.2306 19.727 14.1741 19.6705C14.0894 19.614 14.0612 19.5293 14.0894 19.4446L14.7671 17.327L12.96 15.9999C12.9035 15.9717 12.8753 15.8587 12.9035 15.774C12.9318 15.6893 12.9882 15.6328 13.1012 15.6328H15.3318L16.0094 13.5152C16.0377 13.4305 16.1224 13.374 16.2071 13.374C16.2918 13.374 16.3765 13.4305 16.4047 13.5152L17.0824 15.6328H19.3129C19.4259 15.6328 19.4824 15.6893 19.5106 15.774C19.5388 15.8587 19.5106 15.9434 19.4541 15.9999L17.6471 17.2987L18.3529 19.4446C18.3529 19.5293 18.3529 19.614 18.2682 19.6705C18.2118 19.6987 18.1553 19.6987 18.1271 19.6987Z" fill="white"/>
    </g>
    <defs>
        <clipPath id="clip0_3388_613">
            <rect width="24" height="24" fill="white" transform="translate(0 0.780762)"/>
        </clipPath>
    </defs>
</svg>
